<?xml version="1.0" standalone="no"?>
<!DOCTYPE svg PUBLIC "-//W3C//DTD SVG 20010904//EN"
 "http://www.w3.org/TR/2001/REC-SVG-20010904/DTD/svg10.dtd">
<svg version="1.0" xmlns="http://www.w3.org/2000/svg"
 width="800.000000pt" height="599.000000pt" viewBox="0 0 800.000000 599.000000"
 preserveAspectRatio="xMidYMid meet">
<metadata>
Created by potrace 1.15, written by Peter Selinger 2001-2017
</metadata>
<g transform="translate(0.000000,599.000000) scale(0.100000,-0.100000)"
fill="#000000" stroke="none">
<path d="M1 5717 c0 -202 3 -273 12 -279 9 -6 9 -8 0 -8 -16 0 -18 -111 -2
-127 8 -8 8 -13 0 -17 -7 -5 -11 -47 -11 -111 0 -83 3 -104 15 -109 11 -4 14
-14 10 -33 -3 -16 -2 -48 1 -72 6 -39 8 -42 20 -27 7 10 22 16 36 14 19 -2 22
1 20 18 -2 18 3 22 33 26 36 4 37 3 31 -24 -3 -18 -2 -27 4 -23 6 3 10 13 10
21 0 20 20 17 21 -3 0 -12 4 -8 11 10 5 15 14 25 18 22 14 -9 23 16 11 28 -18
18 -13 24 18 19 20 -3 28 -8 24 -18 -7 -18 11 -18 26 0 8 10 26 13 51 11 33
-3 39 -1 43 18 3 21 4 21 15 -5 14 -33 37 -50 27 -19 -9 28 18 19 34 -12 6
-12 9 -14 7 -5 -5 17 19 45 27 31 2 -4 7 -20 11 -35 3 -16 12 -28 19 -28 19 0
36 35 31 61 -5 23 -5 23 10 5 9 -11 16 -23 16 -28 0 -4 5 -8 10 -8 6 0 11 15
11 33 1 23 3 26 6 10 5 -26 23 -31 23 -8 0 9 12 21 26 27 18 8 24 17 20 31 -4
15 -1 18 16 14 30 -8 48 2 48 29 0 15 6 24 15 24 8 0 15 -5 15 -11 0 -5 4 -8
9 -5 4 3 17 -1 27 -9 23 -17 54 -19 54 -4 0 7 -6 17 -14 23 -12 9 -11 16 5 46
l20 35 -7 -37 c-7 -44 5 -49 37 -15 15 15 23 18 26 10 8 -21 43 -15 43 6 0 31
17 33 38 6 24 -30 42 -32 42 -6 0 31 17 33 38 6 28 -35 36 -31 28 15 -8 52 12
54 45 5 23 -34 39 -44 39 -26 0 6 -4 13 -10 16 -16 10 -12 35 6 35 9 0 12 5 8
11 -4 7 -1 10 7 7 8 -3 14 -11 15 -19 0 -8 2 -19 2 -25 2 -15 67 -49 110 -59
18 -3 37 -15 42 -26 13 -23 81 -27 100 -5 13 17 39 10 57 -13 9 -13 16 -14 43
-4 17 6 38 9 45 7 8 -4 15 3 17 18 2 13 9 22 16 20 6 -1 13 2 13 8 1 5 2 16 3
23 0 6 11 13 24 15 27 4 19 22 -9 22 -11 0 -23 -10 -28 -22 -8 -19 -9 -17 -8
14 2 32 5 38 25 38 14 0 21 4 17 11 -4 6 -13 8 -21 5 -22 -8 -31 44 -10 60 11
8 13 14 7 19 -6 3 -11 1 -11 -5 0 -6 -5 -8 -11 -4 -6 3 -8 16 -5 27 3 13 -1
26 -12 34 -16 12 -15 14 7 31 20 16 21 20 7 25 -9 4 -13 13 -10 22 3 8 1 15
-5 15 -6 0 -11 11 -11 25 0 14 -7 28 -15 31 -20 8 -29 42 -15 59 8 9 8 15 2
15 -6 0 -12 -4 -14 -9 -5 -15 -101 -18 -105 -3 -3 6 2 12 11 12 10 0 16 9 16
23 0 19 -8 25 -50 36 -32 8 -50 18 -50 28 0 10 6 13 16 9 26 -10 35 3 19 28
-11 16 -22 22 -39 19 -26 -5 -44 13 -28 29 7 7 17 6 31 -1 17 -10 21 -9 21 4
0 8 6 15 13 15 6 1 1 10 -12 20 -16 14 -38 20 -71 20 -30 0 -50 5 -53 13 -3 8
-10 6 -21 -8 -15 -20 -15 -20 -16 2 0 12 6 24 13 26 6 3 2 6 -10 6 -12 1 -23
7 -26 14 -4 10 -7 10 -18 0 -11 -11 -10 -13 3 -13 9 0 18 -9 21 -20 6 -25 -2
-60 -14 -60 -5 0 -7 11 -3 24 7 29 -11 43 -32 25 -23 -19 -33 3 -30 63 l3 48
-593 0 -592 -1 -1 -272z"/>
<path d="M7190 5974 c0 -12 6 -15 26 -10 21 6 25 4 21 -8 -3 -8 0 -20 8 -26 8
-6 11 -18 8 -26 -3 -8 1 -14 11 -14 9 0 16 5 16 10 0 6 6 10 13 10 12 0 37
-44 37 -67 0 -7 6 -13 14 -13 8 0 16 -6 19 -12 4 -10 7 -10 18 0 7 6 16 12 20
12 13 0 -3 -38 -18 -44 -13 -5 -13 -8 1 -21 8 -8 21 -15 29 -15 9 0 18 -6 20
-12 4 -8 6 -7 6 3 1 9 -6 20 -15 23 -8 3 -12 10 -9 16 8 14 25 13 25 -2 0 -6
7 -20 16 -30 15 -16 15 -18 0 -24 -26 -10 -8 -24 32 -24 l37 0 -25 -19 c-20
-16 -22 -21 -11 -35 7 -9 19 -16 26 -16 18 0 28 -32 13 -42 -8 -5 -1 -8 19 -8
17 0 38 -6 45 -13 24 -23 88 -56 88 -46 0 11 26 8 64 -7 10 -4 16 -1 16 9 0 9
10 19 23 23 12 4 33 15 46 25 21 17 21 19 5 19 -10 0 2 10 26 23 25 12 44 28
42 35 -3 16 22 42 40 42 7 0 23 11 34 23 20 20 22 35 23 150 l2 127 -406 0
c-365 0 -405 -2 -405 -16z"/>
<path d="M2483 4856 c-57 -32 -120 -107 -107 -128 3 -4 18 -8 35 -8 22 0 29 5
29 20 0 31 44 36 102 12 46 -20 52 -20 74 -5 13 8 24 23 24 32 0 44 -116 100
-157 77z"/>
<path d="M5313 4613 c-59 -55 -80 -91 -88 -151 -7 -52 -8 -54 -35 -50 -20 3
-27 1 -23 -9 3 -8 -9 -19 -31 -28 -32 -14 -35 -17 -24 -35 7 -10 21 -23 33
-28 19 -9 19 -10 -7 -17 -16 -4 -28 -13 -28 -21 0 -16 -17 -19 -22 -3 -2 7
-16 6 -44 -3 -29 -10 -45 -11 -57 -4 -11 7 -29 7 -59 -1 -39 -11 -45 -10 -65
9 l-23 21 -8 -23 -8 -23 -22 28 c-12 15 -22 36 -22 46 0 12 -5 16 -15 13 -18
-7 -20 15 -3 51 16 35 -3 56 -29 33 -10 -9 -40 -25 -67 -37 -59 -25 -78 -16
-52 24 10 15 20 24 24 21 3 -4 14 12 25 35 15 34 22 40 40 35 12 -3 30 -6 40
-6 9 0 17 -7 17 -15 0 -19 11 -19 36 0 17 13 17 14 2 15 -25 0 -22 28 5 51 27
23 5 26 -33 4 -41 -23 -53 -19 -46 15 8 41 -4 38 -40 -10 -16 -22 -34 -40 -40
-40 -13 0 -112 -148 -144 -215 -13 -27 -44 -77 -69 -110 -25 -32 -57 -87 -71
-121 -14 -34 -37 -76 -52 -92 l-27 -31 37 6 c20 2 44 7 52 10 8 4 18 5 23 5 4
-1 7 5 7 13 0 8 7 15 15 15 8 0 15 -4 15 -10 0 -17 22 -11 27 8 2 10 19 24 36
31 26 11 28 14 14 18 -13 3 -17 11 -13 24 3 10 9 28 12 39 5 14 2 20 -10 20
-9 0 -16 5 -16 10 0 13 41 29 57 23 16 -6 13 -54 -4 -71 -7 -8 -11 -18 -8 -23
10 -15 33 -10 45 9 9 16 11 16 21 -1 10 -18 12 -18 30 -1 18 16 19 16 19 -4 0
-28 20 -29 27 -2 6 23 23 26 41 8 9 -9 12 -9 12 0 0 7 5 12 11 12 7 0 9 -9 6
-21 -3 -13 -1 -19 6 -16 7 2 13 16 15 31 3 24 1 27 -17 21 -24 -7 -28 7 -6 25
21 17 40 16 193 -9 73 -13 97 -24 112 -51 9 -17 7 -22 -12 -29 -13 -5 -31 -19
-41 -31 -17 -20 -20 -20 -41 -6 -32 20 -54 1 -29 -26 15 -17 15 -18 -1 -18 -9
0 -14 -4 -11 -10 3 -5 17 -10 30 -10 39 0 70 -19 84 -53 7 -18 20 -45 27 -61
8 -16 11 -32 8 -37 -3 -5 2 -12 10 -15 9 -3 14 -9 11 -13 -12 -21 188 -183
256 -207 27 -10 49 -24 49 -31 0 -7 8 -13 18 -13 9 0 30 -14 46 -30 23 -23 26
-32 17 -43 -9 -11 -8 -17 5 -28 13 -10 17 -10 24 1 7 11 14 11 39 1 17 -7 36
-20 42 -28 21 -25 165 -114 242 -150 43 -20 62 -43 36 -43 -13 0 48 -60 79
-78 19 -10 23 -10 28 2 8 20 -3 36 -25 36 -20 0 -41 19 -41 38 0 10 8 8 29 -7
16 -12 36 -21 45 -21 9 0 21 -11 26 -25 12 -31 15 -31 17 -4 2 26 4 28 34 32
54 8 135 168 109 217 -6 11 -19 20 -28 20 -20 0 -102 50 -102 63 0 18 32 17
60 -3 l30 -21 12 28 c6 15 12 51 12 80 1 59 4 63 48 72 29 6 33 11 35 41 1 19
2 44 2 55 1 13 4 16 9 8 5 -8 16 6 31 38 13 27 22 52 19 55 -3 3 -32 -13 -63
-35 -32 -23 -68 -41 -79 -41 -12 0 -27 -9 -34 -20 -12 -19 -14 -19 -42 -5 -35
18 -57 19 -62 3 -3 -9 -12 -9 -36 1 -17 7 -37 11 -43 9 -7 -2 -21 4 -31 14
-10 10 -28 18 -40 18 -11 0 -36 11 -54 25 -18 14 -37 25 -43 25 -12 0 -131
109 -131 120 0 5 32 -11 72 -35 112 -69 217 -106 324 -112 90 -6 91 -5 142 28
65 42 104 116 110 206 5 70 -29 205 -77 308 -44 96 -167 206 -228 205 -14 -1
-8 -10 23 -38 47 -43 134 -164 134 -188 0 -16 -13 -16 -72 2 -12 3 -19 -5 -28
-30 -14 -44 -27 -40 -96 27 -29 27 -58 47 -65 44 -8 -2 -21 2 -31 10 -14 13
-17 12 -23 -6 -8 -26 -30 -27 -52 -1 -13 15 -19 17 -26 7 -7 -9 -10 -9 -14 1
-2 6 -9 12 -13 12 -13 0 -50 -42 -45 -50 3 -5 -2 -10 -10 -14 -8 -3 -15 -12
-15 -20 0 -8 -11 -37 -25 -64 -14 -28 -25 -56 -25 -63 0 -7 -6 -28 -12 -47
l-13 -34 -10 63 c-9 58 -12 64 -33 62 -16 -2 -26 5 -34 22 -6 14 -15 25 -20
25 -11 0 -10 -7 7 -41 12 -22 13 -34 5 -49 -12 -22 -62 -28 -59 -7 4 33 -3 74
-16 91 -12 16 -17 17 -30 6 -18 -15 -19 -24 -2 -42 6 -7 13 -32 14 -55 1 -22
11 -61 23 -85 11 -23 37 -81 56 -128 36 -88 39 -94 91 -195 17 -33 54 -108 81
-166 28 -59 55 -110 61 -113 13 -8 15 -36 2 -36 -4 0 -29 16 -55 36 -26 20
-50 33 -54 30 -9 -10 56 -68 68 -61 6 3 10 -1 10 -9 0 -20 -34 -21 -50 -1 -7
8 -18 15 -25 15 -7 0 -15 6 -18 14 -3 8 -18 16 -34 18 -20 2 -28 9 -28 23 0
12 -8 21 -20 24 -11 2 -29 10 -40 17 -11 8 -26 14 -35 14 -20 0 -79 56 -92 89
-6 14 -14 44 -19 66 -4 22 -13 60 -19 85 -5 25 -13 117 -16 205 -4 104 -11
170 -20 189 -17 36 -9 155 14 206 8 19 15 42 15 50 0 8 11 28 23 43 13 16 24
39 24 51 0 12 4 26 9 32 9 8 33 94 27 94 -2 0 -21 -17 -43 -37z"/>
<path d="M2075 4557 c-16 -7 -44 -20 -61 -29 -35 -19 -139 -134 -153 -169 -5
-13 -26 -63 -47 -111 -30 -70 -40 -85 -51 -76 -20 16 -32 0 -39 -55 -6 -39 -4
-47 9 -47 9 0 18 -13 22 -32 17 -84 57 -168 94 -198 77 -60 244 -46 406 35 39
19 74 35 79 35 14 0 -45 -60 -69 -71 -11 -5 -27 -13 -35 -19 -31 -19 -86 -39
-125 -43 -22 -3 -62 -10 -90 -17 -118 -26 -204 8 -255 103 -14 26 -29 47 -34
47 -11 0 1 -149 13 -164 5 -6 12 -31 16 -56 4 -25 19 -70 34 -100 50 -105 50
-110 29 -160 -24 -53 -61 -159 -76 -215 -14 -48 -123 -211 -140 -208 -7 2 -12
-2 -12 -7 0 -6 -11 -21 -25 -34 -14 -13 -25 -27 -25 -31 0 -5 -7 -16 -16 -26
-15 -16 -14 -19 5 -36 26 -22 27 -39 2 -53 -28 -14 -54 -2 -49 24 3 16 -1 21
-19 21 -24 0 -31 -22 -14 -41 6 -5 4 -14 -4 -21 -9 -8 -16 -9 -20 -3 -9 14
-52 12 -59 -2 -3 -7 -4 -1 -2 14 1 15 -1 25 -6 22 -5 -3 -15 -1 -23 6 -10 8
-15 8 -20 0 -4 -7 -17 -9 -30 -6 -25 6 -51 -16 -40 -34 3 -5 -1 -10 -9 -10 -9
0 -16 5 -16 10 0 15 -57 12 -63 -2 -3 -9 -10 -6 -22 10 -9 12 -23 22 -31 22
-17 0 -18 -12 -2 -28 9 -9 7 -12 -10 -12 -12 0 -22 5 -22 10 0 16 -53 -1 -68
-22 -7 -10 -24 -18 -38 -18 -13 0 -24 -4 -24 -8 0 -5 -10 -14 -22 -19 -13 -6
-32 -18 -43 -27 -11 -9 -47 -36 -80 -61 -33 -24 -65 -49 -71 -54 -6 -5 -29
-18 -52 -30 -39 -20 -69 -32 -185 -73 -31 -11 -63 -29 -71 -40 -8 -11 -15 -15
-17 -9 -7 20 -64 -3 -67 -27 -4 -25 -22 -30 -22 -7 0 8 -4 15 -10 15 -9 0 -14
-14 -11 -32 0 -5 -10 -8 -23 -8 -14 0 -28 -4 -31 -10 -3 -5 -15 -10 -26 -10
-10 0 -19 -4 -19 -10 0 -17 -38 -50 -43 -37 -3 8 -10 7 -24 -5 -11 -10 -25
-18 -32 -18 -8 0 -30 -17 -51 -39 l-37 -38 1 -379 c1 -369 2 -379 21 -383 25
-4 36 -20 77 -101 18 -36 36 -66 40 -68 4 -2 8 -9 8 -16 0 -7 13 -13 30 -13
23 0 46 -16 107 -74 67 -63 192 -159 209 -159 2 0 16 -8 31 -17 31 -21 63 -27
63 -13 0 6 -12 15 -26 20 -15 6 -22 15 -18 21 3 6 1 15 -6 19 -9 6 -8 14 4 36
8 16 15 23 16 16 0 -21 20 -3 20 19 0 32 46 23 105 -21 30 -22 55 -44 55 -48
0 -8 37 -45 107 -110 18 -16 35 -27 38 -24 3 3 5 0 5 -6 0 -17 -4 -16 -82 28
-54 31 -73 38 -79 28 -13 -20 -10 -38 6 -38 14 0 19 -11 16 -36 -2 -20 41 -49
117 -77 204 -76 233 -85 249 -83 41 6 20 34 -72 96 -53 36 -104 69 -113 74 -9
5 -39 36 -67 69 -64 76 -107 117 -122 117 -7 0 -13 6 -13 14 0 7 -7 19 -15 26
-8 7 -12 16 -10 21 3 4 33 -14 67 -41 62 -50 157 -103 217 -120 29 -8 32 -7
26 8 -4 9 -9 32 -12 50 -5 27 -1 36 16 49 16 11 21 21 16 37 -3 11 -7 32 -9
45 -2 14 -12 30 -21 38 -25 17 -23 67 3 102 30 41 32 112 4 151 -12 16 -22 38
-22 48 0 10 -20 41 -46 67 -36 39 -44 54 -42 79 3 28 7 31 40 34 32 3 92 -15
163 -50 11 -5 32 -29 47 -54 31 -50 69 -74 91 -55 8 6 17 32 20 58 3 26 11 52
19 57 25 19 50 65 44 81 -3 8 -1 15 4 15 5 0 13 18 16 40 4 23 9 38 12 35 12
-12 43 32 58 82 10 33 21 53 30 53 8 0 17 7 21 16 3 8 11 13 18 10 14 -5 35
34 35 64 0 13 14 24 48 36 26 10 58 24 72 31 14 7 31 13 38 13 7 0 27 7 44 16
40 21 228 67 378 94 30 5 87 16 125 24 39 8 104 18 145 21 41 4 78 9 82 11 4
3 47 9 95 14 48 5 124 14 168 20 81 11 173 7 255 -10 25 -6 103 -19 173 -30
70 -11 136 -25 145 -30 9 -5 45 -19 79 -31 43 -15 60 -25 56 -35 -3 -8 0 -14
6 -14 6 0 11 -10 11 -22 0 -37 13 -49 47 -42 22 4 33 15 43 40 14 34 43 46 54
22 5 -10 7 -10 12 0 3 6 17 12 30 12 17 0 24 -6 24 -20 0 -21 25 -26 93 -22
26 2 27 0 27 -45 0 -28 -6 -53 -16 -64 -10 -11 -12 -19 -5 -24 6 -3 11 -3 11
2 0 4 18 8 40 8 22 1 40 -3 40 -8 0 -4 4 -6 10 -2 5 3 21 3 35 -1 27 -7 45
-39 65 -114 17 -69 17 -72 -15 -91 -34 -20 -76 -24 -105 -9 -11 5 -28 14 -38
19 -20 10 -69 4 -78 -10 -3 -5 7 -9 21 -9 38 0 26 -24 -13 -28 -21 -2 -34 2
-38 11 -3 8 -13 13 -24 10 -10 -3 -21 0 -24 6 -11 16 -24 13 -29 -7 -3 -13 -6
-10 -11 11 -5 15 -15 27 -23 27 -10 0 -12 -6 -8 -19 8 -25 -9 -35 -25 -16 -7
8 -16 12 -21 10 -4 -3 -12 2 -17 11 -6 11 -16 15 -26 11 -10 -4 -15 -3 -11 3
3 6 -1 10 -9 10 -9 0 -16 4 -16 9 0 8 -52 31 -71 31 -5 0 -9 -7 -9 -15 0 -11
-11 -15 -40 -15 -38 0 -40 2 -40 30 l0 30 70 0 c67 0 70 1 70 24 0 37 -10 56
-31 56 -10 0 -19 5 -19 11 0 5 -4 7 -10 4 -5 -3 -26 -3 -46 1 -24 4 -32 9 -23
15 11 6 10 9 -4 15 -24 9 -45 -11 -40 -39 3 -16 -4 -26 -27 -39 -57 -32 -86
-21 -94 37 -1 12 -11 12 -49 1 -32 -10 -57 6 -57 36 0 11 -10 33 -21 50 -21
29 -24 30 -72 24 -28 -4 -58 -11 -68 -17 -10 -5 -31 -10 -46 -10 -25 -1 -82
-24 -191 -77 -19 -9 -56 -15 -85 -15 -42 1 -57 -3 -77 -23 -18 -16 -41 -25
-75 -28 -54 -4 -117 -27 -116 -42 1 -5 -18 -10 -41 -12 -24 -2 -51 -4 -60 -5
-10 -1 -18 -7 -18 -13 0 -16 -34 -28 -38 -15 -5 14 -32 14 -32 1 0 -25 -50
-60 -85 -60 -45 0 -78 -17 -71 -36 3 -8 -1 -14 -8 -14 -9 0 -12 7 -9 20 3 11
0 20 -6 20 -6 0 -11 -7 -11 -15 0 -8 -7 -15 -16 -15 -11 0 -14 6 -9 23 6 21 6
21 -9 3 -9 -11 -16 -23 -16 -28 0 -4 -13 -8 -30 -8 -32 0 -43 -26 -15 -36 14
-6 13 -8 -2 -20 -10 -7 -14 -14 -9 -14 5 0 3 -7 -4 -15 -7 -8 -16 -12 -21 -9
-5 3 -9 -2 -9 -10 0 -9 -6 -16 -14 -16 -8 0 -28 -13 -45 -29 -17 -16 -45 -32
-61 -36 -31 -7 -39 -20 -18 -27 9 -3 8 -9 -4 -21 -9 -10 -20 -26 -23 -37 -5
-15 -12 -19 -26 -15 -19 6 -20 3 -14 -32 4 -21 16 -44 26 -52 43 -31 -1 -58
-65 -40 -17 5 -39 9 -48 9 -25 0 -23 -37 2 -45 11 -3 20 -12 20 -18 0 -7 16
-25 35 -40 19 -15 35 -33 35 -39 0 -7 -5 -6 -15 2 -9 8 -15 8 -15 2 0 -6 8
-13 19 -17 20 -6 51 3 51 15 0 4 14 13 30 20 17 7 30 16 30 21 0 4 21 11 46
15 26 4 48 13 51 21 5 11 7 12 14 2 6 -10 15 -10 48 1 32 10 40 17 36 31 -4
12 1 22 15 29 18 10 21 8 26 -20 5 -23 12 -30 30 -30 13 0 24 -6 25 -12 0 -7
4 -2 10 10 10 26 35 25 33 -2 -1 -10 6 -16 18 -16 22 0 108 56 108 70 0 6 12
10 27 10 25 0 26 0 8 -20 -18 -19 -17 -20 3 -20 12 0 22 4 22 8 0 4 14 16 31
26 28 17 32 17 49 1 14 -13 19 -13 23 -3 4 10 9 9 17 -5 6 -9 15 -15 21 -12
20 13 8 -58 -16 -89 -15 -20 -23 -40 -19 -50 3 -9 8 -16 11 -16 8 0 33 28 33
38 0 6 7 12 15 16 8 3 15 15 15 26 0 11 6 23 14 26 8 3 20 19 26 35 7 16 16
29 21 29 5 0 9 11 9 25 0 35 19 72 47 90 12 9 23 11 23 6 0 -20 79 -91 102
-91 33 0 66 26 82 65 12 27 21 34 55 40 41 7 71 -5 71 -27 0 -5 -16 -34 -35
-64 -26 -41 -33 -59 -25 -68 10 -14 -13 -74 -34 -88 -6 -4 -7 -10 -4 -13 9 -9
57 26 58 41 0 15 86 94 102 95 7 1 23 0 35 -1 15 -1 29 10 45 34 13 20 29 36
36 36 15 0 15 -15 0 -40 -10 -16 -10 -24 0 -40 16 -26 15 -30 -3 -30 -19 0
-19 -19 -1 -43 14 -18 14 -17 21 2 3 12 15 26 25 31 18 10 19 8 14 -20 -7 -33
-3 -35 27 -20 22 12 59 -3 59 -24 0 -8 9 -16 20 -19 12 -3 20 -14 20 -26 0
-22 20 -30 20 -8 0 6 7 21 15 31 11 15 17 16 28 8 8 -7 17 -9 20 -5 11 10 37
-18 37 -42 0 -12 11 -34 25 -49 19 -21 24 -33 18 -49 -8 -22 -8 -96 0 -103 16
-16 35 17 51 92 20 87 32 109 48 80 5 -9 21 -16 38 -16 27 0 29 -3 35 -55 5
-35 12 -54 19 -52 6 2 11 13 11 24 0 11 6 27 14 37 8 9 14 31 15 49 1 28 4 32
31 33 34 2 52 -5 38 -15 -6 -3 -7 -28 -4 -56 7 -54 14 -52 25 8 4 21 13 37 21
37 7 0 15 6 18 13 2 7 10 1 17 -15 7 -14 23 -29 36 -32 13 -4 24 -14 24 -22 0
-13 3 -14 14 -5 7 6 20 9 29 5 8 -3 18 -1 22 5 18 30 85 -3 85 -42 0 -9 5 -19
10 -22 6 -3 10 3 10 14 0 11 5 23 10 26 6 3 10 14 10 23 0 9 11 22 25 29 20 9
25 8 25 -2 0 -7 10 -15 21 -18 17 -5 20 -11 15 -29 -12 -39 -13 -66 -5 -79 4
-8 3 -19 -2 -25 -6 -8 -6 -27 0 -53 8 -37 6 -45 -12 -64 -12 -12 -38 -30 -57
-40 l-35 -18 40 6 c33 4 43 1 57 -18 14 -18 21 -20 35 -11 13 9 18 24 18 60
-1 73 -8 128 -17 141 -5 6 -5 14 1 17 5 4 8 32 7 64 -3 60 6 83 37 95 11 4 21
16 24 26 5 21 44 36 53 20 4 -5 20 -12 35 -15 16 -3 35 -14 43 -25 23 -33 82
-22 82 15 0 27 18 46 43 46 14 0 17 -5 13 -16 -5 -14 0 -15 41 -9 27 4 48 8
48 8 0 1 8 17 18 35 9 19 17 40 17 47 0 8 9 17 20 20 11 3 20 13 20 21 0 24
40 16 50 -11 5 -14 14 -25 20 -25 5 0 9 -8 8 -17 -2 -32 2 -53 11 -53 4 0 7
22 6 49 -3 57 10 86 25 60 5 -9 21 -20 35 -23 16 -4 25 -13 25 -26 0 -10 5
-22 10 -25 6 -4 10 5 10 19 0 16 6 26 14 26 15 0 19 -10 31 -67 9 -45 35 -44
35 1 0 19 -5 38 -11 42 -7 4 -9 29 -6 68 4 53 1 65 -19 93 -13 17 -20 34 -15
37 5 4 12 0 14 -6 4 -8 8 -4 13 10 5 18 9 20 20 11 11 -9 18 -8 30 2 20 17 35
-4 28 -41 -4 -20 3 -33 34 -64 43 -41 75 -42 48 -2 -13 21 -13 25 2 39 15 15
15 18 0 29 -8 7 -18 24 -21 38 -6 25 -4 26 29 22 25 -3 38 -11 44 -26 8 -19 9
-19 9 7 1 15 7 27 14 27 6 0 22 3 33 6 15 4 28 -2 43 -17 14 -15 21 -18 21 -9
0 38 97 80 115 50 3 -5 25 -10 49 -10 33 0 47 -6 64 -25 24 -28 55 -34 45 -9
-6 17 14 14 95 -12 23 -8 51 -14 62 -14 10 0 43 -23 72 -51 46 -44 57 -50 85
-46 19 3 39 0 50 -8 26 -20 43 -18 64 6 16 18 21 20 34 9 10 -8 36 -13 66 -11
29 1 49 -2 49 -9 0 -5 11 -10 25 -10 24 0 32 10 18 24 -4 3 -7 16 -8 27 -1 14
3 18 14 13 9 -3 23 -7 31 -8 21 -3 74 -29 82 -41 9 -13 22 1 13 15 -4 6 -18
15 -31 20 -25 10 -33 30 -11 30 7 0 5 5 -5 11 -10 5 -15 16 -12 24 7 18 -7 20
-24 3 -13 -13 -16 -5 -12 44 1 22 -4 30 -25 38 -22 8 -25 13 -16 24 10 11 8
15 -6 20 -17 5 -67 14 -108 20 -11 2 -20 9 -20 17 0 8 -7 14 -15 14 -8 0 -21
4 -27 8 -7 5 -18 5 -25 1 -8 -5 -9 -2 -5 10 5 13 -3 28 -30 52 -20 19 -42 34
-48 34 -7 0 -20 9 -30 20 -20 22 -45 27 -45 9 0 -6 -13 2 -30 18 -16 15 -30
33 -30 40 0 18 -44 27 -95 20 -26 -4 -47 -2 -51 4 -3 6 -19 7 -35 4 -18 -4
-29 -3 -29 4 0 6 -11 11 -25 11 -16 0 -25 6 -25 15 0 16 -10 17 -50 6 -18 -5
-35 0 -60 17 -19 13 -42 21 -52 19 -9 -3 -38 0 -63 5 -33 7 -50 7 -60 -2 -11
-9 -19 -5 -42 20 -24 28 -32 31 -63 25 -19 -4 -57 -8 -85 -9 -40 -2 -50 -6
-49 -19 1 -9 -2 -17 -7 -17 -5 0 -9 4 -9 8 0 5 -12 15 -27 22 l-28 13 30 8
c17 3 24 7 18 8 -7 0 -13 10 -13 21 0 11 -6 20 -12 20 -20 1 -58 36 -58 54 0
25 -18 28 -26 4 -3 -12 -15 -31 -26 -42 -11 -12 -17 -29 -14 -40 3 -11 1 -28
-5 -38 -9 -17 -11 -17 -34 8 -22 24 -26 25 -40 11 -8 -9 -15 -19 -15 -22 0 -4
-11 -16 -25 -27 -15 -11 -24 -28 -22 -41 2 -18 -4 -23 -31 -25 -18 -2 -30 -7
-27 -12 3 -5 -3 -15 -13 -21 -13 -8 -17 -20 -14 -40 4 -27 2 -29 -29 -30 -83
-3 -283 2 -288 7 -4 3 6 16 22 28 15 12 27 26 27 31 0 6 -5 3 -10 -5 -6 -9
-10 -10 -10 -3 0 18 39 51 75 63 38 13 85 97 59 107 -11 4 -13 17 -10 46 5 45
26 67 65 68 28 1 104 27 82 28 -11 1 -11 4 -1 16 7 8 16 13 20 10 11 -7 23 12
24 39 1 11 6 21 11 21 6 1 24 8 40 16 17 9 53 22 80 29 28 7 55 17 62 22 7 6
16 7 22 4 5 -4 29 0 53 8 30 11 69 13 133 10 50 -3 99 -5 110 -3 67 7 151 0
245 -20 48 -10 126 -20 288 -36 24 -3 99 -16 165 -29 67 -14 156 -29 197 -35
42 -6 96 -19 121 -30 25 -11 65 -23 89 -26 25 -4 68 -15 95 -25 28 -10 63 -21
80 -25 16 -4 52 -22 78 -41 27 -19 74 -47 105 -61 31 -15 79 -46 106 -70 26
-24 54 -43 60 -43 7 0 23 -15 36 -32 13 -18 48 -55 79 -83 30 -27 64 -59 76
-71 11 -11 35 -27 53 -35 17 -8 32 -18 32 -22 0 -5 4 -6 9 -2 5 3 12 1 16 -4
9 -16 66 -41 91 -41 14 0 25 -8 29 -21 6 -17 9 -19 16 -8 13 21 11 26 -12 32
-15 4 -19 11 -15 25 5 13 -5 35 -31 69 -44 57 -59 79 -75 113 -7 14 -16 27
-19 30 -4 3 -14 22 -22 42 -9 21 -21 38 -26 38 -6 0 -11 6 -11 13 0 26 -59 97
-80 97 -12 0 -23 7 -27 16 -4 10 -13 14 -26 10 -33 -8 -110 40 -152 95 -36 47
-55 61 -55 38 0 -6 -12 -9 -27 -7 -21 2 -29 10 -35 36 -10 36 -33 43 -41 12
-8 -32 -41 -23 -75 19 -34 42 -44 74 -17 51 12 -10 17 -7 26 14 7 14 15 26 19
26 3 0 23 -18 44 -40 39 -42 56 -50 56 -27 0 15 -54 67 -70 67 -5 0 -17 12
-27 26 -15 24 -17 25 -24 8 -7 -16 -8 -17 -8 -2 -1 9 4 20 10 23 19 12 -22 45
-57 45 l-32 0 29 -29 c34 -35 39 -56 9 -41 -11 5 -29 15 -40 20 -11 6 -27 10
-36 10 -10 0 -14 5 -10 15 7 19 -8 20 -23 1 -9 -10 -8 -15 4 -19 8 -4 12 -13
9 -20 -3 -8 8 -26 26 -41 25 -21 35 -24 51 -16 22 12 23 11 9 -25 -9 -23 -13
-25 -26 -14 -13 11 -17 10 -25 -4 -11 -18 -54 -23 -64 -7 -3 6 -17 10 -31 10
-13 0 -33 5 -44 12 -21 14 -53 1 -96 -39 -35 -33 -54 -30 -54 8 0 27 -2 30
-15 19 -15 -13 -20 -5 -16 28 1 9 -6 11 -22 7 -20 -5 -25 -2 -30 17 -5 20 -5
21 7 6 8 -11 17 -14 26 -8 12 7 11 12 -4 29 -15 16 -16 24 -7 35 9 11 6 17
-14 30 -14 9 -25 12 -25 6 0 -6 10 -15 23 -21 17 -7 10 -8 -30 -5 -35 3 -53 1
-53 -6 0 -6 -3 -8 -7 -5 -3 4 -17 0 -30 -9 -19 -12 -31 -13 -56 -5 -18 6 -41
11 -52 11 -75 2 -113 8 -132 18 -26 15 -120 15 -228 0 -134 -17 -190 -10 -237
30 -12 10 -21 12 -30 5 -17 -14 -116 0 -158 21 -34 16 -60 12 -60 -10 0 -8 -7
-14 -15 -14 -8 0 -15 -4 -15 -9 0 -16 -67 -21 -136 -10 -38 6 -88 13 -112 16
-28 3 -47 12 -55 24 -7 11 -23 19 -39 19 -15 0 -29 4 -32 9 -3 5 -22 12 -42
15 -37 8 -66 -6 -59 -27 7 -18 -13 -45 -23 -30 -4 7 -37 12 -86 12 -63 0 -82
-3 -93 -17 -12 -16 -14 -16 -27 1 -17 22 -23 22 -29 0 -4 -15 -5 -15 -6 -2 -1
17 -59 51 -72 43 -4 -2 -9 3 -13 11 -8 22 -22 18 -51 -12 -14 -15 -25 -22 -25
-15 0 6 -5 12 -10 12 -6 0 -24 10 -40 22 -23 17 -33 19 -42 10 -7 -7 -25 -12
-40 -12 -23 0 -28 -4 -28 -25 0 -17 -4 -23 -14 -19 -8 3 -12 12 -10 19 7 16
-37 86 -51 82 -5 -2 -16 -16 -23 -31 -9 -17 -24 -29 -44 -33 -18 -3 -25 -9
-18 -13 6 -4 -21 -10 -62 -13 -40 -4 -89 -9 -108 -12 -26 -4 -38 -1 -47 12 -7
9 -13 11 -13 5 0 -7 -5 -12 -11 -12 -5 0 -7 4 -4 10 5 8 -6 12 -67 25 -10 2
-21 -1 -24 -6 -3 -5 -14 -9 -24 -9 -12 0 -17 -5 -14 -14 4 -9 -5 -16 -28 -20
-45 -9 -150 -7 -163 3 -5 5 -26 9 -46 9 -20 1 -49 6 -65 13 -16 6 -55 12 -87
13 -37 1 -63 8 -73 18 -12 12 -23 14 -52 6 -21 -5 -50 -11 -66 -14 -16 -2 -37
-11 -47 -20 -24 -22 -134 -27 -150 -8 -6 8 -23 14 -38 14 -14 0 -48 8 -74 17
-42 15 -47 20 -42 41 5 20 3 22 -12 14 -23 -12 -63 2 -63 23 0 8 -8 15 -19 15
-20 0 -93 -29 -76 -30 6 0 2 -5 -8 -11 -13 -8 -17 -18 -13 -35 8 -32 0 -30
-18 4 -14 25 -15 26 -16 5 0 -13 -4 -23 -9 -23 -5 0 -11 -8 -14 -19 -2 -10
-16 -20 -31 -23 -30 -6 -31 -5 -13 14 22 25 57 77 57 87 0 22 -23 21 -55 -3
-18 -14 -38 -26 -44 -26 -6 0 -11 -9 -11 -20 0 -11 -8 -27 -17 -34 -10 -8 -33
-27 -51 -42 -19 -15 -47 -28 -63 -29 -17 -2 -40 -12 -53 -24 -12 -12 -34 -21
-49 -21 -20 0 -27 -5 -27 -20 0 -14 -13 -26 -42 -39 -78 -35 -125 -36 -83 -1
8 6 14 15 13 18 -4 33 26 44 50 20 9 -9 12 -7 12 11 0 20 4 22 25 17 21 -5 28
-1 45 26 21 35 26 68 10 68 -5 0 -10 -4 -10 -10 0 -5 -6 -10 -13 -10 -8 0 -24
-11 -37 -25 -17 -18 -30 -23 -47 -19 -19 5 -32 -3 -68 -41 -34 -35 -50 -45
-65 -40 -14 4 -20 2 -20 -8 0 -14 -40 -37 -64 -37 -8 0 -19 -6 -25 -13 -15
-19 -71 -19 -78 -1 -11 28 21 104 60 140 21 20 47 55 59 78 11 22 31 50 44 61
13 11 34 43 48 70 14 28 37 59 51 70 56 43 122 102 160 143 22 23 45 42 50 42
6 0 34 21 63 48 28 26 68 60 87 77 19 16 35 35 35 41 0 14 44 24 60 14 9 -6 9
-13 0 -29 -10 -20 -10 -21 9 -9 12 7 21 20 21 29 0 8 12 22 28 30 15 8 31 20
35 26 4 7 19 13 32 13 15 0 26 7 30 20 3 11 15 20 25 20 10 0 25 7 34 15 20
20 26 19 26 -5 0 -11 -6 -20 -12 -20 -10 0 -9 -3 1 -9 9 -6 10 -11 2 -15 -18
-11 -13 -26 8 -26 24 0 32 12 21 30 -11 18 10 50 32 50 25 0 22 -17 -3 -25
-41 -13 -3 -23 45 -12 34 8 51 18 58 33 10 21 36 39 44 31 2 -2 -1 -20 -7 -40
-8 -30 -15 -37 -34 -37 -21 0 -25 -5 -25 -30 0 -23 4 -30 20 -30 11 0 20 -6
20 -13 0 -8 12 -13 32 -12 23 0 34 5 38 20 5 20 49 75 59 75 4 0 6 -15 6 -32
0 -29 3 -33 25 -30 14 2 42 20 63 40 38 37 50 69 21 58 -9 -3 -22 -6 -31 -6
-9 0 -13 -6 -9 -15 3 -10 -1 -16 -14 -16 -11 -1 -25 -2 -32 -3 -6 -1 -12 10
-13 22 -1 13 -7 27 -14 32 -18 10 -1 40 41 75 19 15 28 29 22 31 -7 3 -10 14
-7 24 4 15 0 20 -15 20 -12 0 -24 5 -27 10 -3 6 3 10 14 10 12 0 21 4 21 9 0
5 8 7 19 4 13 -3 20 2 24 17 5 19 10 21 36 15 26 -6 31 -4 31 13 0 19 29 52
45 52 5 0 24 14 42 32 30 29 35 31 58 18 14 -7 25 -18 25 -24 0 -14 -59 -71
-82 -79 -10 -4 -18 -13 -18 -22 0 -12 4 -13 18 -6 27 14 106 20 120 9 7 -7 17
-7 25 -1 11 9 21 9 70 5 9 -1 17 -10 17 -19 0 -15 8 -18 42 -17 36 1 47 6 80
43 36 41 37 44 22 67 -10 15 -14 33 -10 49 4 14 2 25 -3 25 -19 0 -20 33 -1
60 11 15 20 33 20 39 0 14 -37 15 -45 1 -3 -5 -17 -10 -30 -10 -12 0 -25 -7
-29 -15 -7 -18 -36 -20 -36 -2 0 6 -8 2 -18 -9 -9 -12 -30 -25 -46 -28 -24 -6
-27 -4 -22 9 3 9 6 19 6 21 0 2 6 4 13 4 6 0 24 14 38 32 22 26 34 32 66 32
22 1 47 7 56 15 9 7 23 11 31 8 10 -4 16 2 18 16 2 12 9 21 15 20 14 -3 27 32
18 47 -3 5 -1 19 5 31 16 29 8 33 -35 19 -38 -13 -43 -36 -7 -34 30 1 19 -11
-33 -36 -25 -12 -45 -25 -45 -30 0 -12 -28 -20 -45 -14 -23 9 -18 21 15 33 41
14 40 41 -2 41 -26 0 -41 -8 -70 -42 -31 -36 -39 -40 -48 -28 -9 13 -12 13
-24 -2 -7 -10 -17 -18 -22 -18 -5 -1 -31 -21 -58 -45 -28 -25 -54 -45 -59 -45
-4 0 -62 -52 -128 -116 -67 -63 -131 -119 -145 -124 -15 -6 -24 -17 -24 -31 0
-17 -4 -20 -22 -16 -22 6 -48 -7 -48 -25 0 -6 6 -8 14 -5 8 3 17 -1 20 -10 4
-9 13 -13 22 -9 14 6 15 4 3 -10 -9 -11 -22 -14 -41 -10 -15 3 -28 1 -28 -4 0
-14 -40 -23 -54 -11 -10 8 -17 7 -26 -4 -14 -17 -50 -20 -50 -5 0 6 4 10 9 10
5 0 14 13 19 29 10 27 14 29 46 24 41 -7 48 3 11 17 -29 11 -33 30 -7 30 23 0
42 19 36 34 -3 7 17 25 43 40 26 15 60 35 75 44 22 14 32 15 47 5 16 -10 24
-6 59 25 23 20 76 64 119 97 69 54 233 207 233 219 0 10 -28 -1 -44 -17 -24
-23 -33 -22 -12 2 14 15 15 21 4 28 -25 15 -46 69 -36 88 7 12 7 20 -2 25 -9
6 -8 11 6 19 13 9 15 14 7 17 -19 8 -16 22 7 29 16 5 17 10 10 31 -11 27 4 34
18 7 9 -14 14 -14 56 10 45 25 79 28 99 8 8 -8 76 6 127 26 8 3 20 7 25 7 6 1
20 7 32 13 16 10 22 10 25 1 3 -8 10 -8 27 1 20 11 25 10 38 -8 18 -27 30 -27
38 0 8 24 41 21 37 -4 -2 -11 2 -15 12 -11 8 3 17 1 21 -5 11 -18 35 -12 35 8
0 28 40 69 70 73 20 2 26 -2 28 -21 2 -15 -3 -28 -12 -33 -9 -5 -16 -20 -16
-34 0 -25 1 -26 64 -21 l65 5 6 -29 c4 -16 11 -29 17 -29 15 0 1 44 -27 86
-14 20 -25 43 -25 50 0 8 -4 14 -8 14 -5 0 -17 27 -27 59 -13 45 -23 61 -38
63 -24 4 -36 28 -13 28 22 0 28 16 11 33 -8 9 -15 24 -15 34 0 32 -39 101 -60
108 -11 3 -27 18 -35 33 l-14 27 -1 -31 c0 -18 8 -38 20 -49 11 -10 17 -22 14
-27 -3 -5 2 -20 11 -35 22 -33 4 -58 -20 -27 -14 19 -14 18 -15 -3 0 -19 -6
-23 -32 -23 -101 0 -139 -28 -75 -55 17 -7 47 -30 65 -51 32 -35 33 -39 16
-51 -27 -20 -35 -16 -24 12 8 22 7 25 -14 25 -27 0 -92 25 -100 39 -10 15 -66
24 -80 12 -7 -6 -30 -14 -52 -19 -33 -7 -38 -12 -36 -30 4 -26 -19 -30 -41 -8
-18 18 -107 29 -123 15 -8 -7 -28 -7 -56 -2 -36 7 -43 12 -44 33 -1 14 -3 30
-5 36 -2 7 -1 12 4 13 28 4 46 -2 65 -19 12 -12 28 -20 35 -19 6 1 20 -1 29
-5 9 -4 26 -2 39 4 19 11 24 9 39 -10 l18 -23 11 22 c15 27 6 43 -22 40 -62
-4 -76 0 -79 29 -2 22 -7 27 -27 24 -13 -1 -40 2 -60 8 -27 7 -38 7 -46 -3
-17 -22 -50 -15 -49 11 1 23 -29 32 -42 11 -3 -6 -8 -79 -11 -162 -4 -113 -11
-180 -30 -262 -14 -60 -29 -130 -34 -154 -5 -24 -14 -50 -20 -57 -6 -8 -9 -23
-6 -34 8 -33 -105 -160 -144 -160 -9 0 -22 -7 -29 -15 -7 -8 -19 -15 -26 -15
-8 0 -14 -8 -14 -17 0 -16 -1 -16 -17 -1 -13 14 -14 20 -3 32 7 9 10 16 6 16
-11 0 -116 -61 -122 -71 -3 -5 -9 -7 -14 -4 -5 3 6 25 24 49 18 24 72 124 121
222 49 98 92 186 97 194 4 8 13 26 19 40 5 14 23 52 39 85 16 33 31 74 34 90
3 17 8 41 12 55 l7 25 -21 -21 c-11 -12 -22 -34 -24 -49 -4 -37 -25 -43 -39
-11 -7 14 -17 23 -23 19 -6 -3 -5 0 2 8 17 19 15 29 -8 29 -12 0 -20 7 -21 18
-1 20 -4 12 -19 -45 -6 -24 -14 -43 -18 -43 -4 0 -12 15 -19 33 -52 148 -58
161 -83 168 -14 4 -19 7 -12 8 6 1 12 8 12 16 0 12 -6 12 -45 0 -25 -7 -49
-14 -53 -15 -4 -2 -13 -5 -20 -7 -7 -3 -18 0 -25 6 -10 8 -19 6 -35 -5 -34
-23 -26 -9 19 37 22 22 39 48 37 57 -5 25 -82 18 -122 -12 -17 -13 -47 -32
-66 -41 -19 -10 -41 -26 -48 -36 -7 -11 -19 -19 -25 -19 -7 0 -29 -19 -49 -42
-20 -24 -40 -40 -43 -36 -18 17 11 61 92 144 70 70 105 97 168 129 97 48 91
43 79 55 -16 15 -87 20 -119 7z m-1057 -2313 c13 -13 19 -24 13 -24 -18 0 -20
-32 -4 -57 l17 -25 23 27 c13 14 29 25 35 23 6 -2 20 4 30 14 10 10 24 16 30
12 7 -5 5 -12 -7 -21 -15 -10 -16 -16 -7 -25 26 -26 11 -98 -19 -98 -12 0 -19
-7 -19 -19 0 -23 -16 -36 -25 -21 -5 7 -12 5 -21 -7 -12 -16 -13 -15 -15 17
-1 19 -1 40 0 46 3 23 -18 61 -36 66 -13 3 -19 -1 -20 -16 -1 -12 -3 -32 -5
-45 -2 -14 3 -26 11 -29 8 -3 11 0 7 6 -3 6 -2 13 3 16 16 10 19 -43 3 -56 -8
-7 -18 -13 -21 -13 -14 0 3 -30 30 -52 21 -18 27 -29 19 -38 -5 -6 -7 -14 -4
-18 3 -3 1 -21 -5 -39 -8 -25 -26 -42 -69 -68 -31 -18 -70 -43 -87 -55 -53
-37 -191 -94 -213 -88 -34 9 -113 -16 -146 -45 l-31 -27 9 -79 c7 -61 6 -80
-4 -86 -10 -6 -22 4 -39 31 -33 51 -60 51 -79 0 -8 -24 -9 -23 -32 15 -13 21
-28 42 -33 45 -4 3 -7 28 -6 55 3 44 11 62 47 99 6 8 12 18 12 24 0 5 11 23
25 39 13 16 36 64 51 108 14 43 31 85 36 92 16 19 42 14 68 -13 12 -13 27 -22
33 -18 5 3 4 8 -3 13 -8 5 -2 10 15 14 20 5 26 12 22 25 -3 13 1 18 17 18 43
0 56 13 56 58 0 25 -5 46 -12 49 -7 3 -4 4 8 1 12 -3 27 1 34 10 11 13 10 18
-6 30 -18 14 -18 14 8 15 27 0 47 15 29 22 -6 1 8 19 29 39 22 19 40 32 40 27
0 -4 11 -2 25 4 14 6 25 15 25 20 0 4 7 8 15 8 8 0 15 -4 15 -10 0 -17 18 -11
44 15 28 28 48 25 84 -11z"/>
<path d="M4497 3643 c-23 -38 0 -89 101 -223 38 -50 126 -100 178 -100 17 0
37 -6 43 -14 19 -23 61 2 61 37 0 22 4 27 25 27 21 0 25 5 25 30 0 33 31 57
58 44 9 -5 42 -8 72 -9 54 -1 55 0 56 27 1 15 -4 28 -10 28 -7 0 -7 3 -1 8 18
13 15 32 -4 32 -21 0 -34 23 -20 37 6 6 -3 18 -22 32 -29 21 -30 22 -20 3 6
-12 11 -23 11 -26 0 -10 -79 -6 -85 4 -9 15 -25 2 -25 -21 0 -10 -7 -19 -15
-19 -9 0 -15 9 -15 24 0 32 -25 53 -44 37 -8 -7 -29 -16 -47 -21 -26 -8 -37
-6 -51 7 -15 14 -22 14 -42 3 -31 -16 -111 1 -173 36 -46 26 -50 28 -56 17z"/>
<path d="M6239 3239 c-1 -8 -1 -33 0 -56 2 -23 -5 -58 -15 -78 -12 -27 -14
-39 -6 -47 9 -9 5 -20 -14 -45 -22 -29 -24 -38 -16 -63 14 -39 71 -89 103 -90
14 0 34 -7 45 -15 10 -8 33 -15 50 -15 24 0 34 -6 46 -32 14 -29 17 -31 24
-14 5 14 1 24 -14 37 -16 12 -22 28 -22 57 0 45 -23 98 -51 115 -10 6 -19 19
-19 28 0 8 -11 25 -25 37 -14 12 -25 32 -25 44 0 22 -41 132 -54 145 -3 3 -7
0 -7 -8z"/>
<path d="M3900 3103 c-56 -8 -69 -14 -88 -45 -36 -58 -51 -116 -41 -152 11
-40 45 -86 63 -86 7 0 30 -16 51 -36 24 -23 43 -33 54 -29 14 6 14 8 -3 21
-11 8 -14 14 -8 14 7 0 12 12 12 28 0 29 26 78 60 112 17 17 19 27 13 58 -4
20 -6 49 -6 64 2 31 -2 35 -40 42 -15 2 -30 6 -34 8 -5 2 -19 3 -33 1z"/>
<path d="M5522 2808 c-20 -21 -26 -21 -79 -11 -80 15 -172 11 -184 -7 -14 -23
-11 -30 17 -41 20 -7 32 -6 48 5 28 18 101 6 119 -19 7 -9 28 -18 47 -20 19
-2 43 -6 53 -10 10 -4 17 -3 17 4 0 7 12 23 26 36 21 20 23 25 10 25 -10 0
-21 13 -27 30 -13 36 -18 37 -47 8z"/>
<path d="M6994 2765 c-9 -14 -14 -32 -10 -40 3 -8 1 -15 -4 -15 -6 0 -10 -6
-10 -13 0 -12 87 -57 110 -57 6 0 10 -6 10 -13 0 -17 65 -51 81 -41 9 5 11 2
6 -9 -4 -11 -2 -14 9 -10 8 3 14 -1 14 -11 0 -16 21 -22 33 -10 9 9 -4 34 -18
34 -7 0 -16 11 -19 25 -4 14 -13 25 -21 25 -11 0 -15 11 -15 40 0 33 -3 40
-19 40 -11 0 -22 -6 -24 -12 -3 -7 -3 4 0 25 5 35 4 37 -23 37 -26 0 -27 -1
-8 -14 18 -14 18 -15 -9 -21 -21 -6 -31 -3 -42 11 -7 11 -9 21 -4 22 5 2 9 10
9 18 0 23 -28 16 -46 -11z"/>
<path d="M6754 2602 c0 -33 -7 -60 -19 -78 -20 -29 -29 -68 -15 -59 11 7 21
-22 14 -40 -3 -8 0 -17 8 -20 9 -4 12 -19 10 -48 -3 -37 0 -44 20 -54 35 -18
108 -21 108 -6 0 7 -7 13 -15 13 -8 0 -15 5 -15 10 0 6 15 10 34 10 24 0 43
-9 70 -34 20 -19 36 -42 36 -51 0 -9 15 -22 35 -31 19 -8 35 -21 35 -29 0 -11
12 -15 50 -15 47 0 66 -12 38 -23 -7 -3 3 -3 22 -1 32 5 33 4 17 -9 -17 -14
-17 -15 5 -16 72 -4 88 -7 88 -18 0 -7 9 -13 21 -13 11 0 29 -4 39 -10 14 -8
19 -5 23 12 5 19 10 20 59 14 29 -4 58 -13 64 -21 6 -8 16 -15 23 -15 6 0 11
-7 11 -15 0 -8 5 -15 12 -15 7 0 23 -12 36 -27 15 -19 25 -24 28 -15 3 6 14
12 24 12 45 0 34 66 -13 78 -41 11 -43 24 -5 42 18 8 33 20 35 25 2 6 -22 23
-53 39 -31 16 -58 35 -61 43 -3 7 -10 10 -15 7 -6 -4 -5 -10 3 -15 7 -4 11
-11 7 -14 -7 -7 -46 11 -66 32 -8 7 -23 11 -37 7 -20 -5 -23 -3 -18 16 5 19 3
21 -16 15 -15 -5 -21 -2 -21 9 0 10 -9 16 -25 16 -17 0 -25 5 -25 18 0 10 -7
27 -15 38 -8 10 -15 27 -15 37 0 10 -8 17 -19 17 -10 0 -30 9 -44 20 -14 11
-30 20 -36 20 -5 0 -14 6 -18 14 -10 16 -114 70 -180 92 -27 9 -55 22 -63 28
-18 15 -64 32 -105 39 -16 3 -37 8 -46 12 -12 5 -15 -3 -15 -43z"/>
<path d="M6369 1404 c-30 -32 -89 -61 -97 -47 -4 5 -15 13 -25 16 -17 6 -17 4
2 -27 12 -18 21 -43 21 -55 0 -28 21 -27 51 2 13 13 41 27 62 30 51 8 67 23
67 62 0 25 -5 34 -22 39 -33 8 -32 9 -59 -20z"/>
<path d="M1990 665 c0 -10 -11 -14 -37 -13 -43 1 -196 -25 -233 -40 -24 -10
-24 -11 -2 -11 12 -1 22 -5 22 -11 0 -5 7 -10 15 -10 8 0 21 -13 30 -30 9 -16
22 -30 31 -30 8 0 18 -8 22 -17 4 -10 15 -18 25 -18 9 0 17 -4 16 -8 0 -5 8
-15 18 -22 17 -13 16 -14 -8 -23 -14 -6 -34 -18 -43 -28 -15 -14 -19 -15 -26
-3 -5 7 -12 10 -16 6 -4 -4 -1 -13 7 -20 16 -12 49 -62 49 -72 0 -3 -9 -5 -20
-5 -12 0 -30 -9 -41 -19 l-21 -19 21 -21 c36 -36 24 -47 -49 -42 -23 1 -24 0
-7 -12 37 -30 21 -37 -96 -40 -47 -2 -48 -3 -45 -29 3 -16 1 -28 -4 -28 -4 0
-8 9 -8 21 0 11 -4 17 -10 14 -5 -3 -10 -15 -10 -26 0 -13 -7 -19 -24 -19 -13
0 -27 -6 -30 -12 -3 -7 -3 -2 1 12 5 22 4 23 -11 11 -9 -7 -16 -24 -16 -37 0
-36 -18 -29 -22 9 -2 25 -8 32 -26 33 -13 1 -28 6 -35 13 -14 14 -51 15 -42 1
3 -5 16 -10 28 -10 19 0 20 -2 7 -15 -17 -16 -69 -23 -88 -11 -6 4 -20 2 -29
-3 -11 -6 -13 -11 -5 -11 7 0 10 -4 7 -10 -4 -6 12 -9 42 -7 36 1 48 -2 51
-14 1 -9 -7 -20 -20 -27 -17 -8 543 -11 2092 -11 1662 0 2111 2 2095 12 -18
11 -17 12 20 18 l40 6 -40 2 c-22 1 -48 8 -58 16 -18 13 -17 14 7 30 33 22 33
33 -1 41 -16 4 -31 12 -35 18 -5 7 -8 4 -8 -6 0 -10 -7 -18 -15 -18 -18 0 -20
16 -2 23 6 3 -3 6 -21 6 -18 1 -42 -4 -53 -9 -13 -7 -19 -7 -19 0 0 5 -9 10
-20 10 -11 0 -20 7 -20 15 0 18 41 20 58 3 8 -8 15 -8 26 1 8 7 20 10 26 6 5
-3 10 0 10 8 0 9 14 17 34 20 19 3 44 15 55 26 12 12 28 21 36 21 10 0 15 10
15 34 0 28 -4 35 -22 38 -32 5 -35 28 -4 28 19 0 26 5 26 20 0 14 11 22 38 29
20 6 44 11 52 11 13 0 13 -1 0 -10 -13 -8 -13 -10 2 -10 9 0 20 5 23 10 5 8
11 7 21 -1 14 -11 14 -11 28 34 2 7 30 19 62 26 88 20 95 25 81 60 -7 20 -19
31 -37 34 -20 3 -18 4 10 6 29 2 31 4 15 10 -28 12 -137 4 -145 -9 -4 -6 -38
-18 -76 -27 -38 -8 -75 -20 -82 -26 -20 -16 -91 -25 -130 -16 -20 4 -54 11
-75 14 -34 5 -37 9 -35 33 l3 27 -78 3 c-43 1 -98 -3 -125 -11 -35 -10 -81
-11 -177 -6 -71 3 -132 5 -135 3 -6 -2 -162 -12 -330 -19 -47 -2 -92 -4 -100
-5 -8 -2 -64 1 -124 5 -93 7 -108 6 -101 -6 6 -11 5 -12 -6 -1 -7 6 -30 12
-51 12 -20 0 -57 6 -80 14 -66 22 -212 27 -288 11 -81 -18 -152 -19 -168 -3
-9 9 -23 9 -59 1 -27 -7 -100 -12 -163 -11 -63 0 -129 -3 -147 -6 -19 -4 -50
0 -75 10 -62 23 -124 32 -167 24 -21 -4 -48 -3 -60 2 -14 5 -38 4 -60 -3 -47
-14 -152 1 -214 30 -45 21 -124 34 -129 21 -2 -4 -26 3 -54 16 -44 20 -56 22
-87 12 -21 -6 -37 -16 -37 -21 0 -5 -7 -4 -15 3 -8 6 -54 13 -104 15 -50 2
-99 9 -110 15 -31 16 -101 13 -101 -5z"/>
</g>
</svg>
